<svg width="116" height="113" viewBox="0 0 116 113" fill="none" xmlns="http://www.w3.org/2000/svg">
<g filter="url(#filter0_d_41_52)">
<path d="M15.5905 104.424C8.25183 104.424 4.5825 101.437 4.5825 95.464C4.5825 93.16 5.39317 91.0693 7.0145 89.192C8.8065 87.2293 10.9398 86.248 13.4145 86.248C15.2065 86.248 16.6145 86.8453 17.6385 88.04C18.5772 89.1493 19.0465 90.344 19.0465 91.624C19.0465 93.672 18.1932 95.4213 16.4865 96.872C15.1212 98.152 13.5852 98.792 11.8785 98.792C10.4278 98.792 9.10517 98.28 7.9105 97.256C8.84917 99.7307 11.2812 100.968 15.2065 100.968C16.3158 100.968 17.2972 100.84 18.1505 100.584C25.2332 98.6213 31.3772 94.312 36.5825 87.656C38.4598 85.2667 40.9345 81.5547 44.0065 76.52C47.0785 71.4 50.5772 64.872 54.5025 56.936C56.2945 53.2667 57.9158 49.768 59.3665 46.44C60.9025 43.0267 62.3532 39.8693 63.7185 36.968C70.4598 22.888 75.6652 13.8427 79.3345 9.83199C76.0065 8.72266 72.3798 8.168 68.4545 8.168C56.6785 8.168 45.2012 12.776 34.0225 21.992C28.1345 26.856 23.4838 32.0187 20.0705 37.48C16.9985 42.344 15.4625 46.6107 15.4625 50.28C15.4625 54.5467 17.4678 56.68 21.4785 56.68C25.1478 56.68 29.9692 54.632 35.9425 50.536C42.0012 46.3547 46.1825 41.32 48.4865 35.432C48.7425 34.7493 49.0838 34.408 49.5105 34.408C49.9372 34.5787 50.0652 34.92 49.8945 35.432C47.4198 42.9413 42.9825 48.9147 36.5825 53.352C31.4625 56.7653 26.7265 58.472 22.3745 58.472C18.7905 58.472 15.8892 57.3627 13.6705 55.144C11.3665 52.9253 10.2145 49.9813 10.2145 46.312C10.2145 37.9493 15.5905 29.3733 26.3425 20.584C38.4598 10.6853 52.4118 5.73599 68.1985 5.73599C70.5878 5.73599 72.9345 5.86399 75.2385 6.12C77.5425 6.376 79.7612 6.80266 81.8945 7.39999C87.1852 2.792 92.6892 0.487999 98.4065 0.487999C100.625 0.487999 102.887 0.957331 105.191 1.896C105.788 2.152 106.001 2.49333 105.831 2.92C105.575 3.34666 105.276 3.51733 104.935 3.432C103.655 2.83466 102.119 2.536 100.327 2.536C95.4625 2.536 90.8972 4.62666 86.6305 8.808C94.3105 11.5387 100.241 15.7627 104.423 21.48C109.116 27.7093 111.463 35.2613 111.463 44.136C111.463 44.9893 111.463 45.8853 111.463 46.824C111.463 47.6773 111.377 48.5733 111.207 49.512C109.841 63.2507 104.295 75.24 94.5665 85.48C84.8385 95.8907 72.9345 101.736 58.8545 103.016C58.2572 103.101 57.6598 103.144 57.0625 103.144C56.4652 103.229 55.8678 103.272 55.2705 103.272C46.6518 103.272 42.3425 100.499 42.3425 94.952C42.3425 93.5867 42.6412 92.264 43.2385 90.984C33.9372 99.944 24.7212 104.424 15.5905 104.424ZM55.5265 100.84C55.9532 100.84 56.3798 100.84 56.8065 100.84C57.3185 100.84 57.8305 100.797 58.3425 100.712C70.4598 99.432 80.5718 93.8427 88.6785 83.944C95.7612 75.1547 100.156 64.36 101.863 51.56C102.033 50.28 102.161 49.0427 102.247 47.848C102.332 46.568 102.375 45.3307 102.375 44.136C102.375 28.3493 96.2732 17.512 84.0705 11.624C82.6198 13.5013 80.9558 16.4027 79.0785 20.328C77.2012 24.2533 75.1532 29.2453 72.9345 35.304C71.8252 38.2907 70.7585 41.32 69.7345 44.392C68.7958 47.464 67.7718 50.4933 66.6625 53.48C65.2118 57.576 62.7798 63.0373 59.3665 69.864C58.5132 71.4853 57.5318 73.1493 56.4225 74.856C55.3132 76.5627 54.0758 78.3547 52.7105 80.232L52.9665 80.104C55.1852 78.9093 57.5745 77.7147 60.1345 76.52C62.6945 75.3253 65.5958 74.4293 68.8385 73.832C71.5692 73.2347 74.2572 72.8507 76.9025 72.68C79.6332 72.424 82.3212 72.3813 84.9665 72.552C85.5638 72.552 85.8625 72.7653 85.8625 73.192C85.8625 73.704 85.5212 73.96 84.8385 73.96C84.4118 73.96 83.8998 73.96 83.3025 73.96C82.7905 73.8747 82.3212 73.832 81.8945 73.832C78.3958 73.832 74.3852 74.472 69.8625 75.752C64.0598 77.4587 59.4945 79.7627 56.1665 82.664C50.5345 87.6133 47.7185 91.7947 47.7185 95.208C47.7185 98.9627 50.3212 100.84 55.5265 100.84Z" fill="#2C5282"/>
</g>
<defs>
<filter id="filter0_d_41_52" x="0.582497" y="0.487995" width="114.88" height="111.936" filterUnits="userSpaceOnUse" color-interpolation-filters="sRGB">
<feFlood flood-opacity="0" result="BackgroundImageFix"/>
<feColorMatrix in="SourceAlpha" type="matrix" values="0 0 0 0 0 0 0 0 0 0 0 0 0 0 0 0 0 0 127 0" result="hardAlpha"/>
<feOffset dy="4"/>
<feGaussianBlur stdDeviation="2"/>
<feComposite in2="hardAlpha" operator="out"/>
<feColorMatrix type="matrix" values="0 0 0 0 0 0 0 0 0 0 0 0 0 0 0 0 0 0 0.25 0"/>
<feBlend mode="normal" in2="BackgroundImageFix" result="effect1_dropShadow_41_52"/>
<feBlend mode="normal" in="SourceGraphic" in2="effect1_dropShadow_41_52" result="shape"/>
</filter>
</defs>
</svg>
