<svg width="104" height="114" viewBox="0 0 104 114" fill="none" xmlns="http://www.w3.org/2000/svg">
<g filter="url(#filter0_d_41_53)">
<path d="M35.3605 105.776C25.6325 105.776 17.9525 104.069 12.3205 100.656C6.77383 97.1573 4.0005 92.592 4.0005 86.96C4.0005 80.7307 7.0725 74.8853 13.2165 69.424C19.7872 63.6213 28.4058 59.696 39.0725 57.648C40.5232 57.392 42.0592 57.1787 43.6805 57.008C45.3018 56.8373 46.9232 56.752 48.5445 56.752C58.4432 56.752 65.1418 59.1413 68.6405 63.92C68.9818 64.3467 69.1525 64.9013 69.1525 65.584C69.1525 66.9493 68.7685 67.1627 68.0005 66.224C64.9285 61.872 58.2298 59.696 47.9045 59.696C44.6618 59.696 41.7605 59.952 39.2005 60.464C30.2405 62.1707 23.1152 65.5413 17.8245 70.576C12.7898 75.3547 10.2725 80.432 10.2725 85.808C10.2725 90.928 12.5765 95.024 17.1845 98.096C21.7072 101.168 27.8512 102.704 35.6165 102.704C42.9552 102.704 49.7392 101.808 55.9685 100.016C62.1978 98.3093 67.9152 95.8773 73.1205 92.72C81.6538 87.5147 85.9205 80.6027 85.9205 71.984C85.9205 62.0853 79.7338 53.168 67.3605 45.232C64.2032 43.184 61.5578 41.392 59.4245 39.856C57.2912 38.2347 55.6272 36.8693 54.4325 35.76C49.9098 31.408 47.6485 26.8 47.6485 21.936C47.6485 20.656 47.7765 19.4613 48.0325 18.352C49.2272 12.8053 52.9392 8.32533 59.1685 4.91199C64.8858 1.75466 71.0725 0.175995 77.7285 0.175995C85.3232 0.175995 91.0832 1.49866 95.0085 4.144C97.8245 6.02133 99.2325 8.88 99.2325 12.72C99.2325 15.1947 98.5072 17.4987 97.0565 19.632C95.6912 21.68 93.8992 22.704 91.6805 22.704C90.0592 22.704 88.6085 22.064 87.3285 20.784C86.2192 19.6747 85.6645 18.352 85.6645 16.816C85.6645 12.72 87.6698 10.672 91.6805 10.672C94.0698 10.672 95.5205 11.44 96.0325 12.976C96.4592 10.672 95.5632 8.66666 93.3445 6.96C89.8458 4.22933 85.2805 2.864 79.6485 2.864C73.7605 2.864 68.3845 4.528 63.5205 7.856C58.3152 11.3547 55.7125 15.408 55.7125 20.016C55.7125 25.9893 61.1738 32.1333 72.0965 38.448C87.3712 47.152 95.0085 57.2213 95.0085 68.656C95.0085 73.6907 93.3872 78.5547 90.1445 83.248C86.9018 88.0267 82.5925 91.952 77.2165 95.024C64.9285 102.192 50.9765 105.776 35.3605 105.776Z" fill="#2C5282"/>
</g>
<defs>
<filter id="filter0_d_41_53" x="0.000499725" y="0.175995" width="103.232" height="113.6" filterUnits="userSpaceOnUse" color-interpolation-filters="sRGB">
<feFlood flood-opacity="0" result="BackgroundImageFix"/>
<feColorMatrix in="SourceAlpha" type="matrix" values="0 0 0 0 0 0 0 0 0 0 0 0 0 0 0 0 0 0 127 0" result="hardAlpha"/>
<feOffset dy="4"/>
<feGaussianBlur stdDeviation="2"/>
<feComposite in2="hardAlpha" operator="out"/>
<feColorMatrix type="matrix" values="0 0 0 0 0 0 0 0 0 0 0 0 0 0 0 0 0 0 0.25 0"/>
<feBlend mode="normal" in2="BackgroundImageFix" result="effect1_dropShadow_41_53"/>
<feBlend mode="normal" in="SourceGraphic" in2="effect1_dropShadow_41_53" result="shape"/>
</filter>
</defs>
</svg>
