<svg width="155" height="192" viewBox="0 0 155 192" fill="none" xmlns="http://www.w3.org/2000/svg">
<g filter="url(#filter0_d_121_95)">
<g filter="url(#filter1_d_121_95)">
<path d="M54.5905 154.424C47.2518 154.424 43.5825 151.437 43.5825 145.464C43.5825 143.16 44.3932 141.069 46.0145 139.192C47.8065 137.229 49.9398 136.248 52.4145 136.248C54.2065 136.248 55.6145 136.845 56.6385 138.04C57.5772 139.149 58.0465 140.344 58.0465 141.624C58.0465 143.672 57.1932 145.421 55.4865 146.872C54.1212 148.152 52.5852 148.792 50.8785 148.792C49.4278 148.792 48.1052 148.28 46.9105 147.256C47.8492 149.731 50.2812 150.968 54.2065 150.968C55.3158 150.968 56.2972 150.84 57.1505 150.584C64.2332 148.621 70.3772 144.312 75.5825 137.656C77.4598 135.267 79.9345 131.555 83.0065 126.52C86.0785 121.4 89.5772 114.872 93.5025 106.936C95.2945 103.267 96.9158 99.768 98.3665 96.44C99.9025 93.0267 101.353 89.8693 102.719 86.968C109.46 72.888 114.665 63.8427 118.335 59.832C115.007 58.7227 111.38 58.168 107.455 58.168C95.6785 58.168 84.2012 62.776 73.0225 71.992C67.1345 76.856 62.4838 82.0187 59.0705 87.48C55.9985 92.344 54.4625 96.6107 54.4625 100.28C54.4625 104.547 56.4678 106.68 60.4785 106.68C64.1478 106.68 68.9692 104.632 74.9425 100.536C81.0012 96.3547 85.1825 91.32 87.4865 85.432C87.7425 84.7493 88.0838 84.408 88.5105 84.408C88.9372 84.5787 89.0652 84.92 88.8945 85.432C86.4198 92.9413 81.9825 98.9147 75.5825 103.352C70.4625 106.765 65.7265 108.472 61.3745 108.472C57.7905 108.472 54.8892 107.363 52.6705 105.144C50.3665 102.925 49.2145 99.9813 49.2145 96.312C49.2145 87.9493 54.5905 79.3733 65.3425 70.584C77.4598 60.6853 91.4118 55.736 107.199 55.736C109.588 55.736 111.935 55.864 114.239 56.12C116.543 56.376 118.761 56.8027 120.895 57.4C126.185 52.792 131.689 50.488 137.407 50.488C139.625 50.488 141.887 50.9573 144.191 51.896C144.788 52.152 145.001 52.4933 144.831 52.92C144.575 53.3467 144.276 53.5173 143.935 53.432C142.655 52.8347 141.119 52.536 139.327 52.536C134.463 52.536 129.897 54.6267 125.631 58.808C133.311 61.5387 139.241 65.7627 143.423 71.48C148.116 77.7093 150.463 85.2613 150.463 94.136C150.463 94.9893 150.463 95.8853 150.463 96.824C150.463 97.6773 150.377 98.5733 150.207 99.512C148.841 113.251 143.295 125.24 133.567 135.48C123.839 145.891 111.935 151.736 97.8545 153.016C97.2572 153.101 96.6598 153.144 96.0625 153.144C95.4652 153.229 94.8678 153.272 94.2705 153.272C85.6518 153.272 81.3425 150.499 81.3425 144.952C81.3425 143.587 81.6412 142.264 82.2385 140.984C72.9372 149.944 63.7212 154.424 54.5905 154.424ZM94.5265 150.84C94.9532 150.84 95.3798 150.84 95.8065 150.84C96.3185 150.84 96.8305 150.797 97.3425 150.712C109.46 149.432 119.572 143.843 127.679 133.944C134.761 125.155 139.156 114.36 140.863 101.56C141.033 100.28 141.161 99.0427 141.247 97.848C141.332 96.568 141.375 95.3307 141.375 94.136C141.375 78.3493 135.273 67.512 123.071 61.624C121.62 63.5013 119.956 66.4027 118.079 70.328C116.201 74.2533 114.153 79.2453 111.935 85.304C110.825 88.2907 109.759 91.32 108.735 94.392C107.796 97.464 106.772 100.493 105.663 103.48C104.212 107.576 101.78 113.037 98.3665 119.864C97.5132 121.485 96.5318 123.149 95.4225 124.856C94.3132 126.563 93.0758 128.355 91.7105 130.232L91.9665 130.104C94.1852 128.909 96.5745 127.715 99.1345 126.52C101.695 125.325 104.596 124.429 107.839 123.832C110.569 123.235 113.257 122.851 115.903 122.68C118.633 122.424 121.321 122.381 123.967 122.552C124.564 122.552 124.863 122.765 124.863 123.192C124.863 123.704 124.521 123.96 123.839 123.96C123.412 123.96 122.9 123.96 122.303 123.96C121.791 123.875 121.321 123.832 120.895 123.832C117.396 123.832 113.385 124.472 108.863 125.752C103.06 127.459 98.4945 129.763 95.1665 132.664C89.5345 137.613 86.7185 141.795 86.7185 145.208C86.7185 148.963 89.3212 150.84 94.5265 150.84Z" fill="#2C5282"/>
</g>
<g filter="url(#filter2_d_121_95)">
<path d="M35.3605 113.776C25.6325 113.776 17.9525 112.069 12.3205 108.656C6.77383 105.157 4.0005 100.592 4.0005 94.96C4.0005 88.7307 7.0725 82.8853 13.2165 77.424C19.7872 71.6213 28.4058 67.696 39.0725 65.648C40.5232 65.392 42.0592 65.1787 43.6805 65.008C45.3018 64.8373 46.9232 64.752 48.5445 64.752C58.4432 64.752 65.1418 67.1413 68.6405 71.92C68.9818 72.3467 69.1525 72.9013 69.1525 73.584C69.1525 74.9493 68.7685 75.1627 68.0005 74.224C64.9285 69.872 58.2298 67.696 47.9045 67.696C44.6618 67.696 41.7605 67.952 39.2005 68.464C30.2405 70.1707 23.1152 73.5413 17.8245 78.576C12.7898 83.3547 10.2725 88.432 10.2725 93.808C10.2725 98.928 12.5765 103.024 17.1845 106.096C21.7072 109.168 27.8512 110.704 35.6165 110.704C42.9552 110.704 49.7392 109.808 55.9685 108.016C62.1978 106.309 67.9152 103.877 73.1205 100.72C81.6538 95.5147 85.9205 88.6027 85.9205 79.984C85.9205 70.0853 79.7338 61.168 67.3605 53.232C64.2032 51.184 61.5578 49.392 59.4245 47.856C57.2912 46.2347 55.6272 44.8693 54.4325 43.76C49.9098 39.408 47.6485 34.8 47.6485 29.936C47.6485 28.656 47.7765 27.4613 48.0325 26.352C49.2272 20.8053 52.9392 16.3253 59.1685 12.912C64.8858 9.75466 71.0725 8.17599 77.7285 8.17599C85.3232 8.17599 91.0832 9.49866 95.0085 12.144C97.8245 14.0213 99.2325 16.88 99.2325 20.72C99.2325 23.1947 98.5072 25.4987 97.0565 27.632C95.6912 29.68 93.8992 30.704 91.6805 30.704C90.0592 30.704 88.6085 30.064 87.3285 28.784C86.2192 27.6747 85.6645 26.352 85.6645 24.816C85.6645 20.72 87.6698 18.672 91.6805 18.672C94.0698 18.672 95.5205 19.44 96.0325 20.976C96.4592 18.672 95.5632 16.6667 93.3445 14.96C89.8458 12.2293 85.2805 10.864 79.6485 10.864C73.7605 10.864 68.3845 12.528 63.5205 15.856C58.3152 19.3547 55.7125 23.408 55.7125 28.016C55.7125 33.9893 61.1738 40.1333 72.0965 46.448C87.3712 55.152 95.0085 65.2213 95.0085 76.656C95.0085 81.6907 93.3872 86.5547 90.1445 91.248C86.9018 96.0267 82.5925 99.952 77.2165 103.024C64.9285 110.192 50.9765 113.776 35.3605 113.776Z" fill="#2C5282"/>
</g>
</g>
<defs>
<filter id="filter0_d_121_95" x="-3" y="0" width="157.463" height="200" filterUnits="userSpaceOnUse" color-interpolation-filters="sRGB">
<feFlood flood-opacity="0" result="BackgroundImageFix"/>
<feColorMatrix in="SourceAlpha" type="matrix" values="0 0 0 0 0 0 0 0 0 0 0 0 0 0 0 0 0 0 127 0" result="hardAlpha"/>
<feOffset dy="4"/>
<feGaussianBlur stdDeviation="2"/>
<feComposite in2="hardAlpha" operator="out"/>
<feColorMatrix type="matrix" values="0 0 0 0 0 0 0 0 0 0 0 0 0 0 0 0 0 0 0.25 0"/>
<feBlend mode="normal" in2="BackgroundImageFix" result="effect1_dropShadow_121_95"/>
<feBlend mode="normal" in="SourceGraphic" in2="effect1_dropShadow_121_95" result="shape"/>
</filter>
<filter id="filter1_d_121_95" x="39.5825" y="50.488" width="114.88" height="111.936" filterUnits="userSpaceOnUse" color-interpolation-filters="sRGB">
<feFlood flood-opacity="0" result="BackgroundImageFix"/>
<feColorMatrix in="SourceAlpha" type="matrix" values="0 0 0 0 0 0 0 0 0 0 0 0 0 0 0 0 0 0 127 0" result="hardAlpha"/>
<feOffset dy="4"/>
<feGaussianBlur stdDeviation="2"/>
<feComposite in2="hardAlpha" operator="out"/>
<feColorMatrix type="matrix" values="0 0 0 0 0 0 0 0 0 0 0 0 0 0 0 0 0 0 0.25 0"/>
<feBlend mode="normal" in2="BackgroundImageFix" result="effect1_dropShadow_121_95"/>
<feBlend mode="normal" in="SourceGraphic" in2="effect1_dropShadow_121_95" result="shape"/>
</filter>
<filter id="filter2_d_121_95" x="0.000488281" y="8.17599" width="103.232" height="113.6" filterUnits="userSpaceOnUse" color-interpolation-filters="sRGB">
<feFlood flood-opacity="0" result="BackgroundImageFix"/>
<feColorMatrix in="SourceAlpha" type="matrix" values="0 0 0 0 0 0 0 0 0 0 0 0 0 0 0 0 0 0 127 0" result="hardAlpha"/>
<feOffset dy="4"/>
<feGaussianBlur stdDeviation="2"/>
<feComposite in2="hardAlpha" operator="out"/>
<feColorMatrix type="matrix" values="0 0 0 0 0 0 0 0 0 0 0 0 0 0 0 0 0 0 0.25 0"/>
<feBlend mode="normal" in2="BackgroundImageFix" result="effect1_dropShadow_121_95"/>
<feBlend mode="normal" in="SourceGraphic" in2="effect1_dropShadow_121_95" result="shape"/>
</filter>
</defs>
</svg>
